<svg xmlns="http://www.w3.org/2000/svg" viewBox="0 0 279.89 78"><defs><style>.cls-1{fill:#fff;}</style></defs><g id="illustration"><path class="cls-1" d="M1.3,32.67l1.31-.36c1.8-.5,2.16-.9,2.16-4.54V9c0-3.65-.36-4-2.16-4.55L1.3,4.09v-.9H24.12V10H23l-.54-2.44C22.1,5.85,21,5.4,16,5.4H12.28V17.32h3.83c4.14,0,4.77-.13,5.22-1.7L21.82,14h.91v9.22h-.91l-.54-1.89c-.45-1.57-1-1.71-5.17-1.71H12.28v8.2c0,3.64.32,4.13,2.16,4.5l2.21.4v.9H1.3Z"/><path class="cls-1" d="M26,22.81c0-6.52,4.09-12.15,12.19-12.15s11.75,4.91,11.75,11.39c0,7.29-5,12.2-12.24,12.2C30.22,34.25,26,29.79,26,22.81Zm16.92,2c0-3.51-1.17-12.29-5.76-12.29C34,12.55,33,16,33,20.21c0,3.37,1.07,12.19,5.53,12.19C41.78,32.4,42.91,29,42.91,24.84Z"/><path class="cls-1" d="M53.08,22.81c0-6.52,4.09-12.15,12.2-12.15,8,0,11.74,4.91,11.74,11.39,0,7.29-5,12.2-12.24,12.2C57.31,34.25,53.08,29.79,53.08,22.81Zm16.92,2c0-3.51-1.17-12.29-5.76-12.29-3.2,0-4.14,3.42-4.14,7.66,0,3.37,1.08,12.19,5.53,12.19C68.87,32.4,70,29,70,24.84Z"/><path class="cls-1" d="M79,24.12c0-7,4-12.83,11.47-12.83a16.83,16.83,0,0,1,3.34.36V6c0-3.2-.32-3.56-1.89-3.87l-1.31-.27V1.08L100,0l.32.22v28.4c0,3.19.31,3.56,1.89,3.87l1.3.27v.81L94.37,34l-.31-.22V30.73h0c-1.71,1.89-4.23,3.65-6.93,3.65C81.64,34.38,79,28.93,79,24.12ZM93.79,28V16.74a3.53,3.53,0,0,0-3.65-3.38c-4.09,0-4.72,4.5-4.72,7.56,0,3.29,1.35,9.32,5.62,9.32A2.5,2.5,0,0,0,93.79,28Z"/><path class="cls-1" d="M117.78,33l-1.49-7.25,1.12-.31L118.63,28a6.43,6.43,0,0,0,6.12,3.91c3,0,5.94-1.44,5.94-4.95,0-2.92-2.56-4.41-5-5.57l-2.66-1.31c-3-1.44-6.07-3.87-6.07-8.15,0-6.47,5.31-9.45,10.75-9.45a23.65,23.65,0,0,1,7.43,1.26v7.2H134l-.54-2.88c-.31-1.57-1.75-3.37-5.89-3.37-2.2,0-4.72,1.17-4.72,4s3.06,4,5.13,5.12l2.56,1.31c3.11,1.57,6.07,4.37,6.07,8.64,0,7.16-5.67,10.57-11.78,10.57A20.57,20.57,0,0,1,117.78,33Z"/><path class="cls-1" d="M141.45,27.36V13.86h-2.79l-.18-.18.45-1.71,2.7-.09V7.56L148,5.45V11.7l5.81-.18v2.16l-.18.18H148V26.51c0,2.24,1.13,4.36,3.69,4.36a4.8,4.8,0,0,0,2.61-.9l.59.81A9.73,9.73,0,0,1,147.75,34C143.47,34,141.45,31.14,141.45,27.36Z"/><path class="cls-1" d="M155.54,32.81l1.13-.32c1.57-.45,1.89-.68,1.89-3.87V17c0-3.2-.32-3.56-1.89-3.87l-1.31-.28V12l9.09-1.08.32.23v3.92h0c2.34-3.07,4.14-4.37,6.26-4.37a3.41,3.41,0,0,1,3.51,3.55,3.35,3.35,0,0,1-3.38,3.34l-.26-.14a3.25,3.25,0,0,0-3-2.16,2.54,2.54,0,0,0-2.83,2.61V28.62c0,3.19.31,3.56,1.89,3.82l2,.37v.76h-13.5Z"/><path class="cls-1" d="M174,28.93c0-5.89,6.61-7,12.37-8.09V18c0-2.61-1.53-4.68-4.23-4.68-2.16,0-2.92,1.17-2.92,2.65V17.5l-.18.32a5,5,0,0,1-2.3.63,1.46,1.46,0,0,1-1.53-1.62c0-1.8,1.8-3.33,3.15-4.19a12.07,12.07,0,0,1,6.3-1.84c5.22,0,8.15,2.7,8.15,8v9.81c0,3.19.31,3.56,1.89,3.87l1.3.27v.81l-8.95.45-.32-.22V30.69h-.09c-2.07,2.07-4,3.47-6.66,3.47C176.83,34.16,174,32.22,174,28.93Zm12.37-.81V22.59c-2.88.54-5.71,1.48-5.71,4.5a3,3,0,0,0,3.1,3.24A2.31,2.31,0,0,0,186.37,28.12Z"/><path class="cls-1" d="M198,27.36V13.86h-2.79l-.18-.18.45-1.71,2.7-.09V7.56l6.34-2.11V11.7l5.81-.18v2.16l-.18.18h-5.63V26.51c0,2.24,1.13,4.36,3.69,4.36a4.8,4.8,0,0,0,2.61-.9l.59.81A9.73,9.73,0,0,1,204.25,34C200,34,198,31.14,198,27.36Z"/><path class="cls-1" d="M211.52,22.45c0-5.94,4.14-11.79,11-11.79,5,0,9.18,3.38,9.18,8.64,0,.32,0,.68,0,.95H216.56c.31,5.58,3.91,9.22,9.67,9.22a8.84,8.84,0,0,0,5-1.57l.59.77c-2.34,2.92-5.31,5.49-9.54,5.49C215.66,34.16,211.52,29.2,211.52,22.45Zm10.75-4.09c1.49,0,3.33,0,3.33-1.89a4,4,0,0,0-4-3.78c-3.28,0-4.72,2.79-5,5.67Z"/><path class="cls-1" d="M233.5,38.57c0-2.66,2.43-4.19,4.41-4.73v0a4.91,4.91,0,0,1-4.18-4.68c0-2.3,1.8-4.1,3.37-5.41l.77-.63a6,6,0,0,1-2.52-5.17c0-3.87,3-7.25,9.13-7.25a11.84,11.84,0,0,1,5.27,1.13l5.8-.27v2.16l-.18.18h-3.24a6.05,6.05,0,0,1,1.08,3.6c0,4.36-3.55,7.29-9.13,7.29a12.39,12.39,0,0,1-4.91-.95l-.27.23a3,3,0,0,0-1.3,2.07c0,1.35,1.44,2.43,3.6,2.43l6.7,0c3.69,0,7.2,1.7,7.2,6.39,0,5.35-5.08,9.4-11.83,9.4C239.85,44.28,233.5,43.16,233.5,38.57Zm17.24-.73c0-2.78-2.57-3.73-5.09-3.73h-4.77a3.07,3.07,0,0,0-3.15,3.38c0,3.37,3.65,4.72,6.66,4.72S250.74,40.82,250.74,37.84Zm-3.33-19.08c0-2.07-.72-6.57-3.47-6.57-2.2,0-2.79,2.39-2.79,4.5s.68,6.58,3.42,6.58C246.78,23.27,247.41,20.88,247.41,18.76Z"/><path class="cls-1" d="M259.32,41.27a3.19,3.19,0,0,1,3.15-3.2l.27.13a1.84,1.84,0,0,0,1.8,1.53c1.89,0,3.11-3,3.65-4.5l-8.91-18.67c-1.4-2.93-1.62-3.51-2.43-3.87l-.72-.32v-.76h11.92v.76l-1.12.32c-1.4.41-1.94,1.08-.77,3.87l3.47,8.28a15.78,15.78,0,0,1,1,3.24h.13a18.87,18.87,0,0,1,.77-3.29L274,17.1c1-3.33.49-4.05-.9-4.41l-1.22-.32v-.76h8.06v.76l-.72.32c-.9.41-1.17,1.12-2.12,3.87l-6.12,17.87c-1.17,3.46-3.78,9.85-8.32,9.85A3.06,3.06,0,0,1,259.32,41.27Z"/><path class="cls-1" d="M0,76.56l1-.4C2.43,75.62,2.79,75,4.41,71l10-24.75h4l9.46,25.24c1.3,3.6,1.75,4.1,3.15,4.64l1,.4v.77H18.76v-.77l1.89-.45c1.71-.4,2-1,.77-4.59L19.8,66.89H8.91L7.69,70.22c-1.66,4.36-1.48,5.4.41,5.89l1.75.45v.77H0ZM19.08,64.77l-3.2-9.18a40.24,40.24,0,0,1-1.17-4.14h-.13a35.39,35.39,0,0,1-1.4,4.19L9.72,64.77Z"/><path class="cls-1" d="M33.72,76.65l-.4-5.71.9-.14.63,1.85a4.43,4.43,0,0,0,4.5,3.24c2,0,4-1.17,4-3.33,0-2.57-2.52-3.65-5.09-4.91s-4.81-3-4.81-6.3c0-4.41,4-6.52,7.74-6.52a13,13,0,0,1,4.9.94v5.31h-.9l-.45-1.71c-.4-1.53-1.66-2.74-4.09-2.74-2,0-3.38,1.21-3.38,2.79,0,2,2.25,2.92,4.77,4.23,3.06,1.53,5.27,3.19,5.27,6.84,0,4.27-3.56,7.29-8.24,7.29A13,13,0,0,1,33.72,76.65Z"/><path class="cls-1" d="M49.87,76.65l-.41-5.71.9-.14L51,72.65a4.44,4.44,0,0,0,4.5,3.24c2,0,4-1.17,4-3.33,0-2.57-2.52-3.65-5.09-4.91s-4.81-3-4.81-6.3c0-4.41,4-6.52,7.74-6.52a13,13,0,0,1,4.9.94v5.31h-.89l-.46-1.71c-.4-1.53-1.66-2.74-4.09-2.74-2,0-3.38,1.21-3.38,2.79,0,2,2.25,2.92,4.77,4.23,3.07,1.53,5.27,3.19,5.27,6.84,0,4.27-3.55,7.29-8.24,7.29A13,13,0,0,1,49.87,76.65Z"/><path class="cls-1" d="M65.45,66.8c0-6.57,4.23-12.24,11.75-12.24,7.19,0,11.16,4.72,11.16,11.25C88.36,72.74,83.63,78,76.52,78,69.59,78,65.45,73.59,65.45,66.8Zm17.19,1.53c0-3.78-1.57-12.06-6.53-12.06-3.78,0-5,3.87-5,8,0,3.82,1.49,12.06,6.3,12.06C81.38,76.34,82.64,72.42,82.64,68.33Z"/><path class="cls-1" d="M90.49,66.57c0-6.48,4.68-11.88,11.25-11.88,2.57,0,5.67,1.08,5.67,3.65a2.68,2.68,0,0,1-2,2.56l-.36-.18a5.67,5.67,0,0,0-5-3.78c-3.73,0-5.13,3.87-5.13,7.07,0,5.71,3,9.81,7.61,9.81A8,8,0,0,0,107.59,72l.54.72c-1.84,2.34-4.36,5.09-8.28,5.22C94.5,78.05,90.49,73.37,90.49,66.57Z"/><path class="cls-1" d="M109.61,76.7l1.39-.41c1.58-.4,1.85-.67,1.85-3.91V60.9c0-3.24-.27-3.55-1.89-3.87l-1.58-.36V56l8.42-1.08.27.22V72.38c0,3.24.27,3.51,1.84,3.91l1.4.41v.63h-11.7ZM112.36,47a2.82,2.82,0,0,1,3.14-2.88c2.08,0,3.15,1.16,3.15,2.88s-1.3,2.92-3.24,2.92A2.78,2.78,0,0,1,112.36,47Z"/><path class="cls-1" d="M122.58,72.74c0-5.54,5.58-6.71,12.15-8V61.8c0-2.79-1.71-4.72-4.41-4.72-2.39,0-3.06,1.3-3.06,2.79V61l-.14.27a4.47,4.47,0,0,1-2,.58,1.26,1.26,0,0,1-1.35-1.39c0-1.53,1.62-3.06,2.83-3.87a10.5,10.5,0,0,1,5.81-1.85c5.17,0,7.42,2.93,7.42,7.56v9.81c0,3.24.36,3.74,2,4.1l1.67.4v.68l-8.1.45L135,77.6V74.31h0c-1.71,1.67-3.78,3.6-6.75,3.6S122.58,75.93,122.58,72.74Zm12.15-.81V66.3c-5,.81-6.84,2.3-6.84,4.91a3.31,3.31,0,0,0,3.51,3.33C133.47,74.54,134.73,73.23,134.73,71.93Z"/><path class="cls-1" d="M145.39,71.21V58h-3.06l-.18-.18.45-1.62,3-.14V51.5l5-2.12V56l6-.22V57.8l-.17.18h-5.81V70.49c0,2.65,1.3,4.41,3.46,4.41a5.68,5.68,0,0,0,3.15-1.08l.55.72A9.45,9.45,0,0,1,151,77.73C147.24,77.73,145.39,75,145.39,71.21Z"/><path class="cls-1" d="M158.18,66.75c0-6,3.78-12.15,10.57-12.15a8.19,8.19,0,0,1,8.51,8.24,7.08,7.08,0,0,1,0,.94H162.36c0,5.49,3,10,8.91,10A9.78,9.78,0,0,0,176.85,72l.5.67c-2.48,2.84-5,5.22-9.18,5.22C162.36,77.91,158.18,73.46,158.18,66.75Zm10.26-4.68c2.39,0,3.65-.27,3.65-1.89,0-1.84-1.89-3.64-4.41-3.64-3.43,0-5.09,2.88-5.32,5.53Z"/><path class="cls-1" d="M180,76.65l-.4-5.71.89-.14.63,1.85a4.45,4.45,0,0,0,4.5,3.24c2,0,4.06-1.17,4.06-3.33,0-2.57-2.52-3.65-5.09-4.91s-4.82-3-4.82-6.3c0-4.41,4-6.52,7.74-6.52a13.08,13.08,0,0,1,4.91.94v5.31h-.9l-.45-1.71c-.41-1.53-1.67-2.74-4.1-2.74-2,0-3.37,1.21-3.37,2.79,0,2,2.25,2.92,4.77,4.23,3.06,1.53,5.27,3.19,5.27,6.84,0,4.27-3.56,7.29-8.24,7.29A13,13,0,0,1,180,76.65Z"/></g></svg>